<?xml version="1.0" standalone="no"?>
<!DOCTYPE svg PUBLIC "-//W3C//DTD SVG 1.0//EN" "http://www.w3.org/TR/2001/REC-SVG-20010904/DTD/svg10.dtd">
<svg xmlns="http://www.w3.org/2000/svg" xmlns:xlink="http://www.w3.org/1999/xlink" id="body_1" width="300" height="338">

<g transform="matrix(0.15 0 0 0.15 -0 0.2499939)">
	<g transform="matrix(6.25 0 0 6.25 2.1316282E-12 0)">
		<g transform="matrix(1 0 0 1 -5.684342E-14 -0)">
			<g>
			</g>
			<g transform="matrix(1 0 0 1 0 0)">
				<g>
                    <path d="M85.508 32.884C 85.508 31.766998 86.066 30.651 87.18301 30.651C 88.3 30.651 89.41601 31.209 89.41701 32.884C 89.975006 32.884 91.09201 32.884 91.65001 32.326C 93.88301 32.326 96.11701 31.768 97.79101 32.326C 99.46601 32.884 100.58301 32.884 102.25801 33.443C 103.933014 34.001 105.05001 33.443 106.16601 32.884003C 108.39901 32.326004 110.074005 31.209003 112.30701 30.651003C 113.424 30.093002 113.98201 30.093002 115.09901 30.093002C 116.216 29.535002 117.33201 29.535002 119.007 28.976002C 121.799 28.418001 124.590004 27.859001 126.824005 26.743002C 129.057 25.626001 131.291 25.626001 133.52301 25.068003C 134.64001 25.068003 135.19801 24.510002 136.31502 23.951002C 136.87302 23.951002 136.87302 23.393002 137.43102 22.835003C 138.54802 22.277002 139.10602 21.718002 140.22302 22.276003C 140.78102 22.834003 141.89803 22.834003 142.45602 22.276003L142.45602 22.276003L143.01503 22.276003C 146.36504 22.276003 149.71503 21.718002 153.62303 22.276003C 154.18103 22.276003 154.74004 22.276003 154.73903 22.276003C 156.41403 21.159002 158.64703 21.159002 160.88103 21.160004C 161.43903 21.160004 162.55603 21.160004 163.11403 21.160004L163.11403 21.160004L163.67203 21.160004C 165.90503 21.160004 168.13902 21.160004 169.81403 21.718004C 171.48903 21.718004 172.60603 22.276005 174.28003 22.835005C 175.95503 22.835005 177.07204 22.835005 178.74702 23.393005C 179.86403 23.393005 180.98003 23.393005 182.09703 23.393005C 182.65503 23.393005 183.21404 23.393005 183.21303 23.393005C 185.44603 23.951006 187.68002 23.951006 189.91302 23.951006C 191.58803 24.509007 193.26303 25.068007 195.49603 25.068007C 196.05403 25.068007 196.61304 25.068007 197.17104 25.068007C 197.72903 25.068007 198.28804 25.626007 198.84604 25.626007L198.84604 25.626007L199.40404 26.185007C 201.63704 26.185007 203.31204 27.302008 205.54604 27.301006C 206.10403 27.301006 207.22104 27.301006 207.77904 27.860006C 209.45404 28.977007 211.68704 29.535006 213.92004 29.535006C 215.03705 29.535006 215.59505 30.093006 216.15404 30.651005C 217.82904 31.209005 218.94604 31.768005 220.62004 32.326004C 221.73705 32.884003 222.85304 32.326004 223.97005 32.884003C 225.64505 33.442 227.87805 34.001003 229.55304 35.676003C 230.67004 36.793003 231.78604 36.793003 233.46104 37.909004C 234.01904 37.909004 234.57805 38.467003 235.13605 39.026005C 236.81105 40.143005 238.48605 41.259007 240.16104 41.817005C 240.71904 41.817005 241.27805 42.375004 241.83604 42.376007C 243.51105 43.493008 245.18605 45.168007 247.41904 46.284008C 248.53604 46.842007 249.09404 47.40101 250.21104 47.959007L250.21104 47.959007L250.76904 47.959007C 252.44405 49.634007 254.67705 50.751007 256.35205 52.425007C 258.02704 54.100006 259.14404 55.217007 261.37704 56.334007C 261.37704 56.334007 261.37704 56.334007 261.37704 56.892006C 261.93506 58.009007 262.49405 58.567005 263.61005 59.125008C 264.72705 59.683006 265.28503 60.24201 265.84406 60.800007C 267.51904 61.917007 269.19406 63.03301 270.31006 64.15001C 270.86807 64.70801 271.42706 65.267006 272.54306 66.38301C 273.10107 66.94101 273.66006 67.50001 274.21805 67.50001C 276.45105 68.05801 277.56805 69.73301 279.24304 71.408005C 280.36005 72.525 282.03503 74.200005 283.15103 75.316C 283.70905 75.874 284.26804 76.991005 284.82602 78.108C 285.94302 81.458 287.618 84.808 289.29303 87.599C 289.29303 87.599 289.29303 88.157 289.85104 88.715996L289.85104 88.715996L289.85104 89.273994C 290.96805 90.39099 291.52603 92.065994 292.64304 93.18199C 293.20105 93.73999 293.20105 94.29899 293.75903 94.856995C 294.87604 96.532 295.43402 98.76499 296.55103 100.439995C 298.226 103.231995 299.34302 106.022995 300.459 108.814995L300.459 108.814995L300.459 109.37299C 301.01703 110.48999 301.57602 111.605995 302.134 113.28099C 302.134 114.39799 303.251 115.51399 303.809 117.18999C 304.367 119.98199 306.042 122.77299 306.59998 126.122986C 306.59998 126.680984 307.158 127.23998 307.15897 128.35599C 307.71698 130.03099 308.27597 131.706 308.83395 133.38098C 308.83395 133.93898 309.39197 134.49799 309.94995 135.05598C 311.06696 136.17299 311.06696 137.28899 311.06696 138.40599C 310.50894 140.63899 311.06696 142.87299 311.62497 145.105C 311.62497 145.663 311.62497 146.222 311.62497 147.33899C 312.18298 149.57199 312.74197 152.36398 312.74197 154.59698C 312.74197 155.15498 312.74197 156.27199 312.74197 156.82999C 312.74197 158.50499 313.3 160.18 314.41696 161.85498C 314.41696 162.41298 314.97498 162.41298 314.97498 162.41298C 315.533 162.97098 316.09198 164.08798 316.64996 164.64598C 317.20798 165.20398 317.20798 165.20398 317.76697 165.76299C 318.88397 166.87999 319.44196 167.99599 319.44196 169.67099C 319.44196 170.22899 318.88394 171.346 318.88297 171.90399C 318.88297 172.46199 318.88297 173.579 319.44196 174.13799C 319.99997 174.69598 319.99997 175.25499 319.99997 175.81299C 319.99997 176.37099 319.44196 176.93 318.88297 176.92899C 318.32495 178.60399 316.09097 179.16199 315.53296 180.83699C 314.97495 183.06999 314.41595 185.30399 313.85895 187.53699C 313.30093 189.21199 313.30093 190.329 313.29996 192.00398C 313.29996 193.67899 312.74194 194.79599 312.74194 196.46999C 312.18393 198.70299 311.62494 200.93698 311.06696 203.16998C 311.06696 204.28699 310.50894 205.40298 310.50894 206.51999C 311.06696 207.07799 311.62595 207.637 312.18393 207.63599C 313.30093 208.75299 314.41693 209.86899 315.53293 210.986C 316.09094 211.54399 316.09094 212.103 315.53293 212.103C 314.9749 212.661 314.41592 212.661 313.85892 212.661C 313.3009 212.103 312.18393 211.54399 311.6249 211.545C 311.0669 210.987 309.94992 210.428 308.83392 210.986C 308.83392 212.103 308.2759 213.219 308.27493 213.778C 307.71692 214.895 307.15793 216.57 307.15894 217.686C 306.60092 219.919 305.48395 221.59401 304.92593 223.828C 303.80893 226.62001 302.69293 228.853 301.57593 231.086C 301.0179 232.203 300.45892 233.319 299.90094 234.436C 299.90094 236.11101 298.22595 237.78601 297.66693 239.46C 296.54993 241.69301 295.43393 243.927 294.31793 246.718C 293.75992 247.835 293.20093 248.951 292.64294 249.51001C 291.52594 252.30202 290.40994 254.535 288.73395 256.768C 287.61694 258.443 286.50095 259.56 285.38495 260.118C 284.26794 261.23502 283.15195 262.351 282.03494 263.46802C 281.47693 264.02603 280.91794 264.58502 280.35995 265.143C 279.80194 265.70102 279.80194 265.70102 279.24295 266.259C 278.12595 267.934 276.45096 269.051 275.33496 270.726C 274.21796 271.84302 273.65997 272.959 271.98495 274.07602C 270.86795 275.19302 269.75195 276.868 268.07697 277.42603C 267.51895 277.98404 266.95996 279.101 266.40198 279.65903C 265.84396 280.21704 265.28497 281.334 264.727 281.89203C 264.727 283.00903 265.285 284.12503 265.285 284.68402C 265.285 286.359 263.61002 286.91702 262.49402 285.80002C 260.81903 284.683 260.81903 284.683 259.144 285.80002C 257.46902 286.91702 255.794 288.592 253.561 289.15002C 253.003 289.15002 253.003 289.70804 252.444 289.709C 251.327 290.26703 250.769 291.384 249.652 291.94202C 248.53499 293.05902 246.85999 293.617 245.74399 294.733C 245.18599 295.29102 244.62698 295.29102 244.06898 295.85C 242.39398 296.967 240.71898 297.525 239.04498 299.2C 238.48698 299.75803 237.92798 299.75803 237.36998 300.31702C 237.36998 300.87503 237.36998 300.87503 237.36998 301.433C 237.36998 302.55002 236.25298 303.66602 234.57797 303.108C 232.90297 302.55 231.78596 303.108 230.11197 303.108C 228.43697 303.66602 226.76196 304.783 225.08698 305.341C 224.52898 305.341 223.96997 305.89902 223.41197 306.458C 221.73697 307.575 220.06197 308.133 218.38698 308.691C 217.26997 308.691 216.15398 309.808 215.03697 309.808C 214.47897 309.808 213.91997 310.36603 213.36197 310.36603L213.36197 310.36603L212.80397 310.36603C 210.57097 312.04102 208.33698 313.15802 206.10397 314.83304C 205.54597 314.83304 205.54597 315.39105 204.98697 315.94904C 204.42897 317.06604 203.86996 317.62402 202.75397 317.62402C 199.96196 317.62402 198.84596 319.85703 199.40396 322.09103C 199.40396 322.64905 199.96196 323.20804 199.96297 323.76602C 200.52097 324.88303 199.96297 325.99902 199.40396 326.557C 198.84596 327.11502 197.17096 327.11502 196.61296 325.999C 195.49596 324.882 194.93796 323.766 194.37897 322.091C 193.82097 320.974 192.70396 319.858 191.58797 319.299C 190.47096 318.741 189.35497 318.741 188.23796 319.299C 187.67996 319.299 187.67996 319.85703 187.12096 319.85703C 186.00395 320.97403 184.32895 321.532 182.65495 320.97403C 182.09695 320.97403 180.97995 320.97403 180.97995 321.53204C 180.42195 322.09006 180.42195 323.20703 180.97995 323.76605C 182.09695 324.88306 181.53795 325.99905 181.53795 327.67404C 181.53795 329.90704 179.86295 331.02405 177.62994 329.90704C 177.07195 329.34903 176.51294 329.34903 175.95494 328.79004C 175.39694 328.79004 175.39694 328.23203 175.39694 327.67404C 174.83894 327.11603 174.83894 325.99905 174.27994 324.88205C 173.16293 325.44006 172.04694 325.44006 170.92993 325.99905C 170.37193 325.99905 169.81293 326.55707 169.25493 326.55707C 167.57993 326.55707 167.02193 326.55707 166.46393 324.88208C 165.90593 323.2071 164.78893 323.2071 163.67192 322.64908C 161.43892 322.09106 158.64693 322.09106 156.41393 320.9741L156.41393 320.9741L155.85593 320.9741C 153.62292 319.2991 151.38893 319.2991 148.59793 319.2991C 146.92293 319.2991 145.24792 319.85712 143.57294 319.85712C 141.89793 319.85712 140.78093 320.41513 139.66493 321.5321C 139.10693 322.09012 138.54793 322.6491 137.98993 322.6491C 137.43193 322.0911 137.43193 321.5321 136.87292 320.97412L136.87292 320.97412L136.87292 320.4161C 136.87292 319.8581 136.31493 319.2991 135.75693 319.85712C 134.63992 320.41513 133.52393 319.2991 132.40692 318.74112C 131.84892 318.1831 130.73192 317.06613 130.73192 315.94913C 130.17392 315.3911 129.61491 314.83212 129.05692 314.83313C 127.93992 314.83313 126.264915 314.27512 125.14892 314.27414C 124.59092 314.27414 124.03192 314.27414 124.03192 313.71613C 123.47392 313.1581 122.914925 313.1581 121.79892 313.1581C 121.24092 313.1581 121.24092 312.6001 120.68192 312.59912C 121.79892 313.71613 122.356926 314.83212 122.914925 315.94913C 122.914925 316.50714 123.47292 316.50714 123.47392 317.06613C 124.03192 318.18314 123.47392 318.74112 121.79892 318.74112C 120.68192 318.74112 120.68192 318.74112 120.12392 319.29913C 120.12392 320.41614 120.12392 320.97412 120.12392 322.09113C 120.12392 322.64914 120.12392 323.20813 119.00692 323.7661C 119.00692 323.7661 118.44892 323.7661 118.44892 324.32413C 117.89092 324.88214 117.89092 325.44113 118.44892 325.9991C 120.123924 327.11612 121.24092 327.6741 122.914925 328.23212C 124.58993 328.23212 124.58993 329.34912 125.148926 330.46512C 125.706924 331.58212 125.148926 332.1401 124.58993 333.2571C 123.47293 334.3741 122.356926 335.4901 121.23993 336.60712C 119.564926 337.16513 118.44793 338.84012 116.773926 338.84012C 115.65693 338.84012 114.540924 338.2821 113.981926 337.16513C 113.42393 334.37314 113.42393 332.14014 114.540924 329.34912C 114.540924 328.7911 115.09892 328.23212 114.540924 327.67413C 109.51592 327.67413 109.51592 326.55713 109.51592 325.99915C 109.51592 324.88214 110.07392 324.32416 110.07392 323.20715C 110.63192 322.09015 110.07392 321.53217 108.39892 320.97415C 107.84092 320.97415 107.28192 320.97415 106.723915 320.97415C 106.16592 320.97415 106.16592 320.41614 105.04891 320.41614C 106.16591 319.85812 106.723915 319.85812 107.84091 319.29913C 107.28291 317.06613 106.723915 315.39114 105.04891 314.27414C 104.49091 313.71613 103.931915 313.15714 103.932915 312.04114C 103.932915 310.36615 102.81592 309.24915 102.25791 308.13315C 101.140915 306.45816 98.90791 305.90015 97.23291 305.90015C 95.55791 305.34213 94.44091 305.34213 92.76591 304.78314C 91.090904 304.22513 89.41591 302.55014 87.741905 301.99115C 87.18391 301.43314 86.62491 300.87415 85.507904 300.31714C 83.2749 299.20013 81.59991 297.52515 79.924904 295.85013C 78.80791 295.2921 78.2499 294.17514 77.1339 293.61713C 76.01691 292.50012 75.4589 291.38412 74.3419 290.82513C 73.22491 289.70813 72.1089 288.59213 70.43391 287.47513C 68.7589 286.35812 67.64191 284.68314 65.9669 283.00912C 64.84991 281.33414 63.174904 280.21713 61.500904 279.10114C 60.942905 279.10114 60.383904 279.10114 59.825905 279.10114C 59.267906 279.10114 58.708904 279.65915 58.150906 279.65915C 56.475906 280.21716 55.358906 281.33414 53.683907 281.89215C 54.241905 281.33414 54.241905 281.33414 53.683907 280.21716C 53.125908 279.65915 52.566906 279.10016 52.009907 279.10117C 50.892906 279.10117 49.776905 279.10117 48.65991 279.10117C 46.426907 279.10117 44.19291 279.65918 41.959908 279.65918C 40.28491 279.65918 38.051907 280.2172 36.376907 280.77618C 36.934906 281.8932 36.934906 282.45117 37.49291 283.56717C 36.375908 284.12518 35.259907 284.12518 34.14291 284.12518C 33.58491 284.12518 32.46791 284.6832 31.90991 285.2422C 31.35191 285.2422 31.35191 285.8002 30.793911 285.2422C 29.67691 284.68417 28.560911 285.2422 27.44391 285.8002L27.44391 285.8002L26.88491 285.8002C 26.88491 285.8002 26.88491 285.2422 27.44391 285.2422C 28.001911 284.68417 28.560911 284.12518 29.11891 283.5672C 29.67691 283.0092 30.23591 283.0092 31.35191 282.4502C 30.79391 281.89218 30.79391 281.3332 30.79391 281.3342C 30.235909 280.77618 29.676908 280.77618 29.11891 281.3342C 28.56091 281.8922 28.00191 282.4512 27.44391 283.0092C 26.88591 283.5672 26.32691 283.5672 25.768911 283.0092C 25.21091 282.45117 25.21091 281.89218 25.768911 281.3342C 25.768911 280.77618 26.326912 280.2172 26.88491 279.6592C 27.442911 279.1012 27.442911 278.5422 28.001911 277.98422C 26.88491 276.86722 26.326912 275.75122 25.209911 275.19223C 23.534912 274.07523 21.859911 272.40024 20.743912 270.72623C 19.626911 268.49323 17.951912 266.81824 15.718912 265.70123C 15.1609125 265.14322 14.6019125 264.58423 14.043912 264.02625C 13.485912 263.46823 13.485912 263.46823 12.927912 262.90924C 11.252912 263.46725 10.135912 264.58423 8.460912 265.14325C 7.9029117 265.14325 7.9029117 265.70126 7.3439116 266.25925C 6.7859116 267.37625 5.668912 267.37625 4.5529118 267.37625C 3.9949117 267.37625 3.4359117 266.81824 3.9949117 266.25925C 4.5529118 265.14224 5.111912 264.02625 6.7859116 264.58426C 6.7859116 264.58426 7.3439116 264.58426 7.3439116 264.02625C 8.460912 262.90924 9.576912 261.23425 11.252912 260.11826C 10.694912 258.44327 9.577911 257.32626 9.018911 256.21027C 8.460912 255.65227 8.460912 255.09326 8.460912 253.97627C 8.460912 253.41827 8.460912 253.41827 7.9029117 252.86028C 7.9029117 252.86028 7.3449116 252.86028 6.7859116 253.41827C 6.2279115 253.97627 5.1109114 254.53528 3.9949117 253.41827C 3.9949117 252.86028 3.9949117 252.30127 4.5529118 251.74327L4.5529118 251.74327L5.110912 251.18527C 6.7859116 250.62727 6.7859116 248.95227 6.7859116 247.27727L6.7859116 247.27727L6.7859116 246.71826C 6.2279115 245.60126 6.2279115 245.04326 7.3439116 243.92726C 9.018911 242.81026 10.693912 240.57726 11.252912 238.90227C 11.810911 237.78526 12.927912 237.22726 14.043911 236.11026C 15.160911 234.99326 16.27691 233.87726 16.83591 232.20226L16.83591 232.20226L17.393911 232.20226C 19.626911 232.76025 20.185911 231.08525 21.30191 229.41125C 21.30191 228.85326 21.30191 228.29425 21.86091 228.29425C 22.977911 227.17725 22.977911 226.06125 22.418911 224.38625C 22.418911 223.82825 21.86091 222.71124 21.86091 222.15324C 21.86091 221.59525 21.86091 221.59525 21.30191 221.03624C 19.626911 219.91924 19.626911 218.80324 21.30191 217.68623C 22.418911 217.12823 22.418911 216.01123 22.97691 215.45323C 23.53491 214.33623 23.53491 213.22023 23.53591 211.54523C 22.97791 209.87022 22.97791 207.63722 22.41891 205.96222C 21.860909 203.72922 21.301908 200.93723 20.74391 198.70322C 20.74391 198.14522 20.74391 198.14522 20.74391 197.58722C 20.74391 195.91222 20.74391 194.79521 20.18591 193.12022C 19.627909 192.56223 19.627909 191.44522 19.62691 190.88722C 19.068909 189.21222 18.509909 188.09521 16.835909 187.53722C 15.160909 186.42021 12.927909 185.86221 11.252909 184.74622C 10.694909 184.18822 10.135909 184.74622 9.5779085 185.30421C 9.019909 186.42122 7.9029083 187.53722 7.3439083 188.65422C 6.785908 189.21222 6.226908 190.32922 5.668908 191.44522C 4.551908 192.56223 2.3189082 193.67822 0.64490795 192.00423C 0.08690792 190.88722 -0.47209203 190.32922 0.64490795 189.21222C 1.7619079 187.53722 2.877908 185.86221 4.552908 184.74622C 5.110908 184.18822 5.669908 183.07121 6.227908 182.51222C 6.785908 181.39522 6.785908 180.27922 6.785908 179.16222C 6.227908 176.92921 5.668908 174.69522 5.668908 171.90422C 5.668908 169.11221 5.668908 166.87923 6.227908 164.08823C 6.785908 162.97122 6.785908 161.29622 7.3439083 160.18022C 7.3439083 159.62222 7.9019084 158.50522 8.460908 157.94722C 9.577908 156.83022 10.693908 155.71422 11.252908 154.03822C 11.810907 152.36322 12.927908 150.68822 12.927908 149.01422C 12.927908 148.45622 13.485908 147.89722 13.485908 147.33922C 13.485908 146.78122 14.043907 145.66422 14.043907 145.10522C 13.485908 143.43022 14.043907 142.31322 14.601907 141.19722C 15.159906 140.08022 15.718906 138.40521 16.276907 137.28922C 17.393908 135.05621 17.393908 132.26422 19.626907 130.03122C 20.184908 128.91422 20.743908 127.79822 21.301907 126.68122C 21.859907 124.44822 22.976906 122.773224 24.093906 121.09822C 24.651907 120.54022 24.651907 120.54022 24.651907 119.981224C 25.209908 118.30622 26.326906 116.631226 27.443907 114.95622C 28.560907 113.28122 28.560907 111.606224 29.118906 109.93222C 29.118906 109.37422 29.118906 108.81522 29.676907 108.25722C 31.351906 106.582214 30.793907 104.34922 30.234907 102.11522C 29.117907 99.32322 28.559908 96.53222 29.118908 93.74122C 29.118908 93.18322 29.118908 92.62422 29.676908 92.62422C 30.23491 91.507225 30.23491 90.94922 30.79391 89.83222L30.79391 89.83222L30.79391 89.27422C 31.91091 88.15723 33.02691 86.48222 34.70191 85.924225C 36.93491 84.80723 39.168907 84.24922 41.959908 83.69122C 44.19291 83.69122 46.426907 82.57423 48.100906 80.341225C 48.100906 79.783226 48.658905 79.783226 49.217907 79.22423L49.217907 79.22423L49.775906 78.66623C 50.333904 77.54923 50.892906 76.99123 51.450905 76.43323C 52.567905 75.31623 53.683907 73.64123 54.800903 72.52523C 55.917904 71.40823 57.033905 69.73323 58.708904 68.05823L58.708904 68.05823L59.267906 67.50023C 60.384907 66.38323 61.500908 65.26723 62.616905 64.70823C 63.733906 63.59123 64.84991 62.475227 65.9669 61.35823C 67.0839 60.24123 67.64191 59.12523 68.7589 58.008232C 69.8759 57.450233 70.991905 56.333233 72.1089 55.21723C 73.2259 54.10023 74.3419 52.98423 74.8999 52.425232C 76.0169 51.30823 77.6919 50.19223 78.8089 49.63423C 79.925896 49.076233 81.0419 48.51723 81.5999 46.84223C 82.1579 45.167233 82.716896 44.050232 83.2749 42.376232C 83.2749 41.25923 83.8329 40.14323 84.3919 39.026234C 84.9499 39.026234 85.508896 39.026234 86.6249 38.468235C 86.0669 37.910236 85.507904 37.910236 85.507904 37.351234C 85.507904 36.793236 86.0659 36.234234 86.0669 36.234234C 86.0669 35.676235 86.6249 35.117233 86.6249 34.559235C 86.6249 34.559235 87.1829 34.559235 87.1829 34.001236C 87.1829 34.001236 87.7409 34.001236 87.7419 33.443237C 86.6249 34.001236 86.066895 33.443237 85.5079 32.88424C 86.065895 33.442238 86.62489 33.442238 87.7419 34.00124C 87.7419 34.00124 88.2999 34.00124 88.2999 33.44324C 88.2999 32.885242 88.2999 32.32624 88.2999 32.32624C 88.2999 32.32624 87.7419 32.32624 87.1829 32.32624C 86.6249 32.32624 86.0659 32.88424 85.5079 32.88424L85.5079 32.88424L85.508 32.884zM182.097 295.292C 182.097 294.73398 181.539 294.73398 181.538 294.175C 180.98 293.05798 181.538 292.5 182.097 291.942C 182.655 291.38397 183.214 291.38397 184.33 291.38397C 185.447 291.942 186.005 292.50098 186.005 293.61697C 186.005 294.175 186.005 295.29196 186.005 295.84998C 186.563 298.08298 186.563 298.08298 188.796 298.08298C 189.91301 298.08298 191.029 298.08298 192.14601 298.08298C 194.37901 297.52496 196.613 296.408 198.84601 295.84998C 201.07901 295.29196 203.313 294.73297 205.546 294.175C 206.104 294.175 206.66301 294.175 207.779 294.175C 210.01201 294.733 211.68701 294.175 213.362 293.05798C 213.92 292.49997 215.037 292.49997 215.595 291.942C 216.712 291.38397 217.828 291.38397 218.945 290.82498C 221.73701 289.15 224.52802 288.033 226.76201 286.35898C 228.43701 285.24197 230.11201 284.12598 231.78601 283.00897C 233.46101 281.89197 235.13602 280.77597 236.811 279.65897C 237.92801 279.10095 239.60301 277.98398 240.71901 276.86697C 242.95201 275.192 244.62701 273.51697 246.86101 272.40097C 247.97801 271.84296 248.53601 271.28397 249.09401 270.72598C 250.21101 270.16797 250.76901 269.051 251.88602 268.49298C 252.44402 267.93497 253.00302 267.37598 254.11902 266.818C 254.67702 266.25998 254.67702 266.25998 254.67702 265.701C 256.35202 264.58398 258.027 262.35098 259.144 260.676C 260.26102 259.559 261.377 258.443 262.49402 256.768C 264.169 255.093 265.286 252.86 266.96002 250.627C 268.07703 249.51 269.19302 247.83499 269.752 246.718C 270.86902 244.485 271.98502 242.251 273.66 240.577L273.66 240.577L273.66 240.019C 274.777 237.786 275.893 235.552 277.01 233.319C 278.685 230.527 279.802 227.178 281.476 224.386C 282.03403 223.269 282.59302 222.153 282.59302 221.036C 283.71002 218.803 284.268 216.569 284.82602 214.336C 284.82602 213.778 284.82602 213.778 285.385 213.22C 287.06 209.87 288.177 206.52 288.734 202.612C 289.29202 200.379 289.851 198.145 290.409 195.912C 291.526 192.562 291.526 189.771 292.08398 186.421C 292.642 184.188 292.642 181.39601 292.64297 179.16301C 293.201 175.813 293.201 171.90501 292.64297 168.55501C 292.64297 165.763 292.08496 162.414 292.08398 159.62201C 292.08398 156.83 291.52597 154.59702 290.968 151.80501C 290.40997 149.013 289.85098 146.78001 289.293 143.98901C 288.176 141.75601 287.618 139.52202 287.059 136.73102C 286.50098 134.49802 285.384 132.82301 285.38498 130.58902C 285.38498 128.91402 284.82697 127.23902 283.15097 126.68102C 281.47598 126.123024 280.35898 125.564026 278.68497 124.44802C 275.33496 122.21502 273.65997 119.42302 274.21796 116.07302C 274.21796 114.39802 274.77597 112.16502 275.33496 110.49002C 275.89297 108.81502 276.45197 107.14002 275.33496 106.02302C 274.77695 104.348015 273.65997 103.23102 273.10196 102.11502C 271.98495 100.44002 271.42697 99.32302 270.30997 98.20702C 269.19296 95.97402 268.07697 93.74002 266.40198 92.066025C 264.16898 89.274025 262.494 86.483025 259.70197 84.24902L259.70197 84.24902L259.14395 83.691025C 257.46896 81.45802 255.79395 79.22402 253.56094 77.54903C 252.44394 76.43203 251.32794 75.316025 250.21094 74.758026C 249.65294 74.20003 249.09393 73.64103 247.97794 73.08302C 246.30293 71.96603 244.62793 71.40802 243.51094 70.29102C 241.83594 68.61602 239.60294 67.49902 237.92795 66.383026C 237.92795 66.383026 237.36995 66.383026 237.36995 65.82503C 235.13695 64.70803 233.46194 64.150024 231.22795 63.033028C 228.99495 61.916027 226.76096 61.35803 224.52795 61.35803C 223.96996 61.35803 223.96996 61.35803 223.41196 61.35803C 222.85396 60.80003 221.73695 60.80003 221.17896 60.80003C 220.62096 60.80003 220.62096 60.80003 220.06195 60.80003C 218.94495 60.24203 217.26994 60.80003 216.15395 60.80003C 213.92094 61.35803 211.68695 61.35803 209.45395 60.24203C 206.66194 59.12503 204.42896 58.00903 202.19595 56.892033C 200.52095 55.775032 199.40395 54.65903 197.72896 53.542034C 194.37895 50.750034 191.02896 47.401035 187.12096 44.609035C 187.67896 41.817036 186.56296 41.259037 184.32996 41.259037C 183.21295 41.259037 182.09695 41.817036 180.97995 42.376038C 180.42195 42.934036 180.42195 42.934036 179.86295 43.49204C 178.18794 44.60904 177.07094 46.28404 175.39694 47.40104C 172.60493 49.07604 171.48894 48.51804 169.25494 47.40104C 168.69695 46.84304 168.13794 46.28404 167.57994 45.72604C 166.46294 44.60904 165.34694 42.93404 164.78894 41.81704C 163.67194 39.584038 161.43893 39.584038 159.20593 39.584038C 158.08893 39.584038 156.41393 40.142036 155.29793 40.142036C 153.06493 40.142036 150.83093 41.259037 149.71393 42.934036C 148.59692 44.609035 147.48093 46.284035 145.80592 47.959038C 145.24792 48.517036 144.13092 49.07604 143.57292 50.19204C 142.45592 51.30904 141.33992 51.30904 140.22292 50.19204C 139.66492 49.63404 139.10591 49.63404 138.54791 49.07504C 137.98991 49.633038 137.43091 50.19204 137.43091 50.75004C 136.87291 51.86704 136.3139 52.98304 135.75691 54.65904C 135.19891 56.334038 134.08191 58.009037 132.9649 59.12504C 132.4069 59.683037 132.4069 59.683037 131.8479 60.24204C 131.2899 61.35904 129.6149 61.917038 128.4979 61.917038C 127.3809 63.03404 126.26489 64.70904 125.706894 65.825035C 125.148895 66.94203 124.5899 68.05804 124.03189 69.73303C 123.47389 70.29103 123.47389 71.408035 122.914894 71.966034C 122.356895 73.08303 122.356895 73.64104 122.356895 74.75803C 122.914894 76.43304 121.7989 76.991035 120.12389 77.549034C 119.0069 77.549034 119.0069 77.549034 118.44889 78.66603C 118.44889 80.341034 119.00689 81.45803 119.56489 83.13303C 120.12289 83.69103 120.681885 84.80804 120.681885 85.366035C 120.681885 86.48303 121.23988 87.04104 122.35689 87.59904C 122.91489 88.157036 123.473885 88.716034 124.03189 88.716034C 124.58989 88.716034 124.58989 89.27403 125.14889 89.27403C 125.70689 89.83203 126.265884 89.27403 126.264885 88.716034C 126.82288 87.04103 127.38188 85.366035 127.38188 83.69103C 127.93988 81.45803 127.93988 79.783035 128.49788 77.549034C 129.05588 76.43204 129.61488 75.87403 130.17288 75.31603C 130.17288 75.31603 130.73088 75.31603 131.28989 75.31603L131.28989 75.31603L131.28989 75.87503C 130.73189 78.66703 129.61488 82.01603 129.05688 84.80803C 128.49889 85.925026 128.49889 87.04103 127.93989 88.15703C 127.93989 88.71503 127.38189 89.274025 126.82389 89.274025C 125.706894 89.83202 124.59089 90.39102 123.47389 90.39102C 122.91589 90.39102 122.356895 90.39102 121.79889 90.39102C 120.68189 89.83302 119.56589 88.71602 118.44889 88.15702C 117.89089 87.59902 117.331894 87.04002 116.77389 86.48302C 116.21589 85.36602 115.65689 84.250015 115.098885 83.13302C 114.540886 82.01602 113.98189 81.458015 112.86588 80.89902C 112.307884 80.34102 111.748886 80.34102 111.19088 79.78302C 110.07388 78.66602 108.95788 78.10802 107.28288 78.10802C 106.724884 78.10802 105.60788 78.10802 105.04888 78.10802C 104.49088 78.10802 103.37388 78.666016 102.81588 79.224014C 101.69888 79.78201 101.14088 79.78201 100.02488 79.224014C 97.23288 78.10702 94.44188 78.666016 91.64988 79.78301C 90.53288 80.34101 89.41688 80.90001 88.29988 80.89901C 85.50788 80.89901 83.27488 80.89901 80.48388 80.89901C 77.69188 80.89901 75.45888 80.34101 72.66688 79.78301C 71.54988 79.78301 70.433876 79.78301 69.31688 79.78301C 67.08388 80.34101 66.52488 82.016014 67.08388 84.249016C 67.64188 86.48202 68.200874 89.27402 68.200874 91.50702C 68.200874 93.18202 68.200874 94.85702 68.200874 96.53202C 68.200874 97.64902 68.200874 98.20702 68.200874 99.32402C 68.200874 100.99902 67.642876 102.67402 67.64188 104.34902C 67.08388 107.69902 65.408875 110.49002 63.175877 112.72302C 61.500877 114.398026 59.267876 116.07302 57.033875 116.63102C 55.916874 117.18902 54.800873 117.74802 53.125874 118.30602C 50.333874 119.42302 48.100872 121.65602 46.425873 124.44802C 45.867874 125.56502 45.308872 126.68102 44.751873 127.79802C 43.634872 129.47302 43.076874 130.59003 41.959873 132.26402C 41.401875 133.38103 40.284874 134.49702 39.72687 135.61403C 39.168873 136.73103 38.051872 137.28903 38.051872 138.40604C 36.93487 140.63904 36.376873 142.87303 35.259872 145.10504C 34.701874 146.22205 34.701874 147.89705 34.14387 149.01404C 33.02687 151.24704 33.02687 153.48103 33.02687 156.27203C 33.02687 156.83003 33.02687 157.38904 33.02687 158.50504C 33.02687 161.29704 32.468872 164.64604 32.468872 167.43803C 32.468872 170.23004 32.468872 173.02103 33.02687 175.81303C 33.02687 176.93004 33.02687 178.60504 33.02687 179.72104C 33.02687 181.95404 33.58487 184.74603 33.58487 186.97903C 33.58487 189.21204 33.58487 192.00403 34.70187 194.23703L34.70187 194.23703L34.70187 194.79503C 35.25987 197.02803 35.25987 199.26202 35.81787 201.49503C 35.81787 202.05302 35.81787 202.61203 36.37687 203.17003C 37.49387 206.52003 38.05187 209.31104 39.16787 212.66103C 39.72587 214.89403 40.84287 217.12802 41.40187 219.36102C 41.95987 221.59402 44.19387 223.82802 44.75087 226.61902C 46.42587 229.96902 48.10087 233.31902 50.33487 236.66902C 50.892868 237.78603 52.00987 238.90202 52.56787 240.01903C 53.68487 241.69403 54.24287 243.36903 55.35887 244.48503C 55.91687 245.60204 57.03387 246.71803 57.592873 247.27704C 58.15087 248.39404 58.709873 249.51004 59.825874 250.62704C 60.942875 251.74405 62.058876 253.41905 63.175873 254.53505C 64.850876 257.32706 67.08387 259.56006 69.31687 261.23505C 70.43387 262.35205 71.54987 262.91003 72.66687 264.02603C 73.22487 264.58405 73.78387 264.58405 73.78387 265.14304C 74.341866 265.70105 74.90086 266.26004 76.01687 266.81802C 80.48387 269.05103 83.83287 272.40103 87.74187 275.75104C 89.41687 277.42603 91.091866 279.10104 93.32487 280.21704C 95.55787 281.89203 97.232864 283.56705 100.024864 284.12503C 100.024864 284.12503 100.58286 284.12503 100.58286 284.68402C 101.69986 285.80103 103.37486 286.359 104.49086 286.91702C 106.72386 288.03403 109.51586 289.15002 111.74886 290.26703C 112.30686 290.82504 113.42387 290.82504 113.981865 291.38403C 115.65687 291.94205 117.33186 292.50104 119.00687 293.05804C 120.68187 293.61606 121.79887 294.17505 123.47387 294.17505L123.47387 294.17505L124.03187 294.17505C 125.148865 294.73306 125.70687 294.73306 126.82387 294.17505C 127.38187 294.17505 127.940865 294.17505 127.939865 294.73306C 127.939865 295.29108 128.49786 295.29108 129.05687 295.29205C 129.61487 295.29205 130.17387 295.29205 131.28987 295.29205C 131.84787 294.73404 131.84787 294.17505 132.40688 293.05804C 132.96487 293.61606 133.52388 293.61606 133.52287 293.61703C 134.08087 294.73404 135.19788 294.73404 136.31488 294.73303L136.31488 294.73303L136.87288 294.73303C 137.98988 294.73303 138.54788 294.73303 139.10588 294.17502C 139.10588 293.617 140.22289 293.617 140.78088 293.617C 142.45589 294.17502 144.13089 294.17502 145.80588 294.733C 146.92288 295.29102 148.59789 295.29102 149.15588 294.175C 149.71388 293.61697 150.27289 293.05798 151.38889 293.61697C 152.50589 294.175 153.06389 294.175 154.1809 293.61697C 154.73889 293.61697 155.2979 293.61697 155.2979 293.61697C 156.9729 294.175 158.0899 294.175 159.7639 294.73297C 161.9969 295.291 161.9969 295.291 163.6719 293.61697C 164.2299 293.05896 165.34691 293.05896 165.9049 293.61697C 166.4629 294.73398 166.4629 295.29196 166.46391 296.40796C 167.02191 296.40796 167.02191 296.40796 167.57991 295.84995C 167.57991 294.73294 168.13791 294.73294 169.25491 294.17496C 169.81291 294.73297 169.81291 294.73297 170.37192 294.73297C 171.48892 295.84998 172.04692 295.84998 172.60492 294.17496C 172.60492 293.61694 172.60492 293.05795 173.16393 293.05896C 173.72192 293.05896 174.28093 293.61697 174.27992 293.61697C 174.83792 294.73398 175.95493 295.29196 176.51292 296.40796C 177.62993 297.52496 179.30493 297.52496 179.86293 296.40796C 180.42093 295.84995 180.97993 295.84995 181.53793 295.84995C 181.53793 295.29193 181.53793 294.73294 181.53793 294.17496C 183.21294 295.29196 182.65494 295.29196 182.09694 295.29196zM89.417 34.559C 91.092 35.116997 92.209 35.116997 92.766 34.001C 91.649 34.559 90.533 33.443 89.417 34.559z" stroke="none" fill="#FA4238" fill-rule="nonzero" />
				</g>
				<g transform="matrix(1 0 0 1 100.676056 90)">
					<g transform="matrix(1 0 0 1 0 0)">
						<g transform="matrix(1 0 0 1 0 0)">
							<g transform="matrix(1 0 0 1 0 0)">
								<g transform="matrix(1 0 0 1 0 0)">
									<g transform="matrix(1 0 0 1 0 0)">
										<g transform="matrix(5.0704226 0 0 5.0704226 -5.0704226 172.39436)">
                                            <path transform="matrix(1 0 0 1 0 0)"  d="M13.5 0.6C 10.1 0.6 7.3166666 -0.26 5.15 -1.98C 2.9833333 -3.6933336 1.9 -6.3 1.9 -9.8L1.9 -9.8L1.95 -10.85L7.15 -10.85L7.1 -9.85C 7.1000004 -7.950001 7.683334 -6.4833336 8.85 -5.45C 10.016667 -4.416667 11.566668 -3.9 13.5 -3.9C 15.633334 -3.9 17.26 -4.36 18.38 -5.28C 19.493334 -6.1933336 20.05 -7.466667 20.05 -9.1C 20.05 -10.3 19.723333 -11.283333 19.07 -12.05C 18.423334 -12.816668 17.61 -13.426667 16.63 -13.88C 15.643333 -14.326668 14.300001 -14.816668 12.6 -15.35C 10.466667 -16.05 8.733334 -16.733334 7.4 -17.4C 6.0666666 -18.066666 4.9333334 -19.06 4 -20.38C 3.0666666 -21.693333 2.6 -23.416668 2.6 -25.55C 2.6 -28.583334 3.6433334 -30.900002 5.73 -32.5C 7.8100004 -34.100002 10.450001 -34.9 13.65 -34.9C 16.850002 -34.9 19.466667 -34.083336 21.5 -32.45C 23.533333 -30.816668 24.55 -28.366667 24.55 -25.1L24.55 -25.1L24.55 -24.5L19.35 -24.5L19.35 -25.15C 19.35 -26.783335 18.826668 -28.06667 17.78 -29C 16.72667 -29.933334 15.366668 -30.4 13.7 -30.4C 11.933333 -30.4 10.516666 -30.016666 9.45 -29.25C 8.383333 -28.483334 7.8500004 -27.383335 7.85 -25.95C 7.8500004 -24.883335 8.166667 -23.993334 8.8 -23.28C 9.433333 -22.560001 10.233334 -21.983334 11.2 -21.55C 12.166667 -21.116667 13.466667 -20.65 15.1 -20.15C 17.266666 -19.45 19.026667 -18.766666 20.38 -18.1C 21.726665 -17.433334 22.883333 -16.45 23.85 -15.15C 24.816668 -13.85 25.3 -12.150001 25.3 -10.05C 25.3 -6.3500004 24.243334 -3.65 22.13 -1.95C 20.01 -0.25 17.133335 0.6 13.5 0.6z" stroke="none" fill="#FA4238" fill-rule="nonzero" />
										</g>
									</g>
								</g>
							</g>
							<g>
							</g>
						</g>
					</g>
				</g>
			</g>
		</g>
	</g>
</g>
</svg>